{
    "accessors": [
        {
            "bufferView": 0,
            "byteOffset": 12,
            "componentType": 5126,
            "count": 24,
            "max": [
                0.9966610074043274,
                1.0,
                1.0
            ],
            "min": [
                -0.9966610074043274,
                -1.0,
                -1.0
            ],
            "name": "accessor_buffer_ID17_1",
            "type": "VEC3"
        },
        {
            "bufferView": 1,
            "byteOffset": 0,
            "componentType": 5123,
            "count": 36,
            "max": [
                23
            ],
            "min": [
                0
            ],
            "name": "accessor_buffer_ID17_3",
            "type": "SCALAR"
        },
        {
            "bufferView": 4,
            "byteOffset": 24,
            "componentType": 5126,
            "count": 132,
            "max": [
                1.0,
                1.0
            ],
            "min": [
                0.0,
                0.0
            ],
            "name": "accessor_buffer_ID35_2",
            "type": "VEC2"
        },
        {
            "bufferView": 0,
            "byteOffset": 24,
            "componentType": 5126,
            "count": 24,
            "max": [
                1.0,
                1.0
            ],
            "min": [
                0.0,
                0.0
            ],
            "name": "accessor_buffer_ID17_2",
            "type": "VEC2"
        },
        {
            "bufferView": 9,
            "byteOffset": 0,
            "componentType": 5123,
            "count": 372,
            "max": [
                223
            ],
            "min": [
                0
            ],
            "name": "accessor_buffer_ID53_3",
            "type": "SCALAR"
        },
        {
            "bufferView": 5,
            "byteOffset": 0,
            "componentType": 5123,
            "count": 204,
            "max": [
                131
            ],
            "min": [
                0
            ],
            "name": "accessor_buffer_ID35_3",
            "type": "SCALAR"
        },
        {
            "bufferView": 3,
            "byteOffset": 0,
            "componentType": 5123,
            "count": 96,
            "max": [
                61
            ],
            "min": [
                0
            ],
            "name": "accessor_buffer_ID26_3",
            "type": "SCALAR"
        },
        {
            "bufferView": 10,
            "byteOffset": 12,
            "componentType": 5126,
            "count": 703,
            "max": [
                1.0,
                0.9863887429237366,
                1.0
            ],
            "min": [
                -1.0,
                -0.9863887429237366,
                -1.0
            ],
            "name": "accessor_buffer_ID8_1",
            "type": "VEC3"
        },
        {
            "bufferView": 6,
            "byteOffset": 0,
            "componentType": 5126,
            "count": 56,
            "max": [
                100.0,
                73.16400146484375,
                71.87860107421875
            ],
            "min": [
                -100.0,
                0.0,
                -71.87860107421875
            ],
            "name": "accessor_buffer_ID44_0",
            "type": "VEC3"
        },
        {
            "bufferView": 8,
            "byteOffset": 24,
            "componentType": 5126,
            "count": 224,
            "max": [
                1.0,
                1.0
            ],
            "min": [
                0.0,
                0.0
            ],
            "name": "accessor_buffer_ID53_2",
            "type": "VEC2"
        },
        {
            "bufferView": 2,
            "byteOffset": 12,
            "componentType": 5126,
            "count": 62,
            "max": [
                0.9999999403953552,
                0.9890428185462952,
                1.0
            ],
            "min": [
                -1.0,
                -1.0,
                -1.0
            ],
            "name": "accessor_buffer_ID26_1",
            "type": "VEC3"
        },
        {
            "bufferView": 10,
            "byteOffset": 24,
            "componentType": 5126,
            "count": 703,
            "max": [
                1.0,
                1.0
            ],
            "min": [
                0.0,
                0.0
            ],
            "name": "accessor_buffer_ID8_2",
            "type": "VEC2"
        },
        {
            "bufferView": 6,
            "byteOffset": 12,
            "componentType": 5126,
            "count": 56,
            "max": [
                1.0,
                1.0,
                1.0
            ],
            "min": [
                -1.0,
                -0.9999999403953552,
                -1.0
            ],
            "name": "accessor_buffer_ID44_1",
            "type": "VEC3"
        },
        {
            "bufferView": 4,
            "byteOffset": 12,
            "componentType": 5126,
            "count": 132,
            "max": [
                1.0,
                1.0,
                1.0
            ],
            "min": [
                -1.0,
                -1.0,
                -1.0
            ],
            "name": "accessor_buffer_ID35_1",
            "type": "VEC3"
        },
        {
            "bufferView": 2,
            "byteOffset": 24,
            "componentType": 5126,
            "count": 62,
            "max": [
                1.5827900171279907,
                1.0
            ],
            "min": [
                0.0,
                0.0
            ],
            "name": "accessor_buffer_ID26_2",
            "type": "VEC2"
        },
        {
            "bufferView": 8,
            "byteOffset": 12,
            "componentType": 5126,
            "count": 224,
            "max": [
                1.0,
                1.0,
                1.0
            ],
            "min": [
                -1.0,
                -1.0,
                -1.0
            ],
            "name": "accessor_buffer_ID53_1",
            "type": "VEC3"
        },
        {
            "bufferView": 7,
            "byteOffset": 0,
            "componentType": 5123,
            "count": 84,
            "max": [
                55
            ],
            "min": [
                0
            ],
            "name": "accessor_buffer_ID44_3",
            "type": "SCALAR"
        },
        {
            "bufferView": 2,
            "byteOffset": 0,
            "componentType": 5126,
            "count": 62,
            "max": [
                51.51679992675781,
                70.19700622558594,
                38.19139862060547
            ],
            "min": [
                -40.65400314331055,
                -6.749569892883301,
                -38.19139862060547
            ],
            "name": "accessor_buffer_ID26_0",
            "type": "VEC3"
        },
        {
            "bufferView": 10,
            "byteOffset": 0,
            "componentType": 5126,
            "count": 703,
            "max": [
                33.0,
                2.9544198513031006,
                33.0
            ],
            "min": [
                -33.0,
                -2.9544198513031006,
                -33.0
            ],
            "name": "accessor_buffer_ID8_0",
            "type": "VEC3"
        },
        {
            "bufferView": 0,
            "byteOffset": 0,
            "componentType": 5126,
            "count": 24,
            "max": [
                4.444769859313965,
                20.812599182128906,
                65.76789855957031
            ],
            "min": [
                -4.444769859313965,
                -20.812599182128906,
                -65.76789855957031
            ],
            "name": "accessor_buffer_ID17_0",
            "type": "VEC3"
        },
        {
            "bufferView": 6,
            "byteOffset": 24,
            "componentType": 5126,
            "count": 56,
            "max": [
                1.0,
                1.0
            ],
            "min": [
                0.0,
                0.0
            ],
            "name": "accessor_buffer_ID44_2",
            "type": "VEC2"
        },
        {
            "bufferView": 11,
            "byteOffset": 0,
            "componentType": 5123,
            "count": 3888,
            "max": [
                702
            ],
            "min": [
                0
            ],
            "name": "accessor_buffer_ID8_3",
            "type": "SCALAR"
        },
        {
            "bufferView": 8,
            "byteOffset": 0,
            "componentType": 5126,
            "count": 224,
            "max": [
                100.0,
                25.33249855041504,
                71.82550048828125
            ],
            "min": [
                -100.0,
                -63.0734977722168,
                -71.82550048828125
            ],
            "name": "accessor_buffer_ID53_0",
            "type": "VEC3"
        },
        {
            "bufferView": 4,
            "byteOffset": 0,
            "componentType": 5126,
            "count": 132,
            "max": [
                46.628597259521484,
                61.22919845581055,
                68.3208999633789
            ],
            "min": [
                -46.628597259521484,
                -3.5527098671522383e-15,
                -68.3208999633789
            ],
            "name": "accessor_buffer_ID35_0",
            "type": "VEC3"
        }
    ],
    "asset": {
        "version": "2.0"
    },
    "bufferViews": [
        {
            "buffer": 0,
            "byteLength": 768,
            "byteOffset": 0,
            "byteStride": 32,
            "name": "bufferView_buffer_ID17_0",
            "target": 34962
        },
        {
            "buffer": 0,
            "byteLength": 72,
            "byteOffset": 768,
            "name": "bufferView_buffer_ID17_1",
            "target": 34963
        },
        {
            "buffer": 0,
            "byteLength": 1984,
            "byteOffset": 840,
            "byteStride": 32,
            "name": "bufferView_buffer_ID26_0",
            "target": 34962
        },
        {
            "buffer": 0,
            "byteLength": 192,
            "byteOffset": 2824,
            "name": "bufferView_buffer_ID26_1",
            "target": 34963
        },
        {
            "buffer": 0,
            "byteLength": 4224,
            "byteOffset": 3016,
            "byteStride": 32,
            "name": "bufferView_buffer_ID35_0",
            "target": 34962
        },
        {
            "buffer": 0,
            "byteLength": 408,
            "byteOffset": 7240,
            "name": "bufferView_buffer_ID35_1",
            "target": 34963
        },
        {
            "buffer": 0,
            "byteLength": 1792,
            "byteOffset": 7648,
            "byteStride": 32,
            "name": "bufferView_buffer_ID44_0",
            "target": 34962
        },
        {
            "buffer": 0,
            "byteLength": 168,
            "byteOffset": 9440,
            "name": "bufferView_buffer_ID44_1",
            "target": 34963
        },
        {
            "buffer": 0,
            "byteLength": 7168,
            "byteOffset": 9608,
            "byteStride": 32,
            "name": "bufferView_buffer_ID53_0",
            "target": 34962
        },
        {
            "buffer": 0,
            "byteLength": 744,
            "byteOffset": 16776,
            "name": "bufferView_buffer_ID53_1",
            "target": 34963
        },
        {
            "buffer": 0,
            "byteLength": 22496,
            "byteOffset": 17520,
            "byteStride": 32,
            "name": "bufferView_buffer_ID8_0",
            "target": 34962
        },
        {
            "buffer": 0,
            "byteLength": 7776,
            "byteOffset": 40016,
            "name": "bufferView_buffer_ID8_1",
            "target": 34963
        }
    ],
    "buffers": [
        {
            "byteLength": 47792,
            "name": "buffer_combined",
            "uri": "data:application/octet-stream;base64,"
        }
    ],
    "materials": [
        {
            "emissiveFactor": [
                0.0,
                0.0,
                0.0
            ],
            "name": "Dark_Material",
            "pbrMetallicRoughness": {
                "baseColorFactor": [
                    0.21960799396038055,
                    0.21960799396038055,
                    0.21960799396038055,
                    1.0
                ],
                "metallicFactor": 0.0,
                "roughnessFactor": 1.0
            }
        },
        {
            "emissiveFactor": [
                0.0,
                0.0,
                0.0
            ],
            "name": "Green_Material",
            "pbrMetallicRoughness": {
                "baseColorFactor": [
                    0.4196079969406128,
                    0.8196079730987549,
                    0.800000011920929,
                    1.0
                ],
                "metallicFactor": 0.0,
                "roughnessFactor": 1.0
            }
        }
    ],
    "meshes": [
        {
            "name": "ID17",
            "primitives": [
                {
                    "attributes": {
                        "NORMAL": 0,
                        "POSITION": 19,
                        "TEXCOORD_0": 3
                    },
                    "indices": 1,
                    "material": 0,
                    "mode": 4
                }
            ]
        },
        {
            "name": "ID26",
            "primitives": [
                {
                    "attributes": {
                        "NORMAL": 10,
                        "POSITION": 17,
                        "TEXCOORD_0": 14
                    },
                    "indices": 6,
                    "material": 1,
                    "mode": 4
                }
            ]
        },
        {
            "name": "ID35",
            "primitives": [
                {
                    "attributes": {
                        "NORMAL": 13,
                        "POSITION": 23,
                        "TEXCOORD_0": 2
                    },
                    "indices": 5,
                    "material": 0,
                    "mode": 4
                }
            ]
        },
        {
            "name": "ID44",
            "primitives": [
                {
                    "attributes": {
                        "NORMAL": 12,
                        "POSITION": 8,
                        "TEXCOORD_0": 20
                    },
                    "indices": 16,
                    "material": 0,
                    "mode": 4
                }
            ]
        },
        {
            "name": "ID53",
            "primitives": [
                {
                    "attributes": {
                        "NORMAL": 15,
                        "POSITION": 22,
                        "TEXCOORD_0": 9
                    },
                    "indices": 4,
                    "material": 0,
                    "mode": 4
                }
            ]
        },
        {
            "name": "ID8",
            "primitives": [
                {
                    "attributes": {
                        "NORMAL": 7,
                        "POSITION": 18,
                        "TEXCOORD_0": 11
                    },
                    "indices": 21,
                    "material": 1,
                    "mode": 4
                }
            ]
        }
    ],
    "nodes": [
        {
            "children": [
                1,
                2,
                3,
                4,
                5,
                6
            ],
            "name": "Car",
            "rotation": [
                0.7071068286895752,
                0.0,
                0.0,
                0.7071067094802856
            ],
            "scale": [
                0.009999999776482582,
                0.009999999776482582,
                0.009999999776482582
            ],
            "translation": [
                0.0,
                0.0,
                0.0
            ]
        },
        {
            "mesh": 2,
            "name": "Car_Front",
            "rotation": [
                2.9947139056428627e-22,
                -0.7071068286895752,
                0.0,
                0.7071068286895752
            ],
            "scale": [
                1.0,
                1.0,
                1.0
            ],
            "translation": [
                7.105430068106433e-14,
                1.0902895155595616e-06,
                -110.46100616455078
            ]
        },
        {
            "mesh": 3,
            "name": "Car_Monoblock",
            "rotation": [
                2.9947139056428627e-22,
                -0.7071068286895752,
                0.0,
                0.7071068286895752
            ],
            "scale": [
                1.0,
                1.0,
                1.0
            ],
            "translation": [
                -8.881779961836516e-15,
                -1.0902904250542633e-06,
                35.87529754638672
            ]
        },
        {
            "mesh": 4,
            "name": "Car_Monoblock.001",
            "rotation": [
                2.9947139056428627e-22,
                -0.7071068286895752,
                0.0,
                0.7071068286895752
            ],
            "scale": [
                1.0,
                1.0,
                1.0
            ],
            "translation": [
                -3.5527096553940015e-15,
                136.61000061035156,
                35.87529373168945
            ]
        },
        {
            "mesh": 0,
            "name": "Dashboard",
            "rotation": [
                -0.34498506784439087,
                -0.6172400712966919,
                0.34498506784439087,
                0.6172401905059814
            ],
            "scale": [
                1.0,
                1.0,
                1.0
            ],
            "translation": [
                -0.14212200045585632,
                54.627296447753906,
                -43.040496826171875
            ]
        },
        {
            "mesh": 1,
            "name": "Seat",
            "rotation": [
                2.9947139056428627e-22,
                -0.7071068286895752,
                0.0,
                0.7071068286895752
            ],
            "scale": [
                1.0,
                1.0,
                1.0
            ],
            "translation": [
                -2.131629901346195e-14,
                40.54619598388672,
                30.546098709106445
            ]
        },
        {
            "mesh": 5,
            "name": "Wheel",
            "rotation": [
                0.2444498986005783,
                -0.6635091304779053,
                -0.2444498986005783,
                0.663508951663971
            ],
            "scale": [
                0.9999999403953552,
                0.9999999403953552,
                1.0
            ],
            "translation": [
                2.131629901346195e-14,
                79.99999237060547,
                -28.627901077270508
            ]
        },
        {
            "children": [
                0
            ],
            "matrix": [
                -1.0,
                0.0,
                0.0,
                0.0,
                0.0,
                0.0,
                1.0,
                0.0,
                0.0,
                1.0,
                0.0,
                0.0,
                0.0,
                0.0,
                0.0,
                1.0
            ],
            "name": "Scene_root"
        }
    ],
    "samplers": [
        {
            "name": "default"
        }
    ],
    "scene": 0,
    "scenes": [
        {
            "extras": {
                "active_camera": null,
                "background_color": [
                    0.05087608844041824,
                    0.05087608844041824,
                    0.05087608844041824
                ],
                "frames_per_second": 24
            },
            "name": "Scene",
            "nodes": [
                7
            ]
        }
    ]
}
