{
    "accessors": [
        {
            "bufferView": 0,
            "byteOffset": 12,
            "componentType": 5126,
            "count": 1488,
            "max": [
                0.9913308620452881,
                0.9912987351417542,
                0.9913309812545776
            ],
            "min": [
                -0.9913308620452881,
                -0.9912987351417542,
                -0.9913309812545776
            ],
            "name": "accessor_buffer_ID7_1",
            "type": "VEC3"
        },
        {
            "bufferView": 0,
            "byteOffset": 0,
            "componentType": 5126,
            "count": 1488,
            "max": [
                483.3020324707031,
                500.0,
                483.3020324707031
            ],
            "min": [
                -483.3020324707031,
                -500.0,
                -483.3020324707031
            ],
            "name": "accessor_buffer_ID7_0",
            "type": "VEC3"
        },
        {
            "bufferView": 1,
            "byteOffset": 0,
            "componentType": 5123,
            "count": 1296,
            "max": [
                1485
            ],
            "min": [
                0
            ],
            "name": "accessor_buffer_ID7_3",
            "type": "SCALAR"
        },
        {
            "bufferView": 0,
            "byteOffset": 24,
            "componentType": 5126,
            "count": 1488,
            "max": [
                1.0,
                1.0
            ],
            "min": [
                0.0,
                0.0
            ],
            "name": "accessor_buffer_ID7_2",
            "type": "VEC2"
        },
        {
            "bufferView": 2,
            "byteOffset": 0,
            "componentType": 5123,
            "count": 864,
            "max": [
                1487
            ],
            "min": [
                2
            ],
            "name": "accessor_buffer_ID7_4",
            "type": "SCALAR"
        }
    ],
    "asset": {
        "version": "2.0"
    },
    "bufferViews": [
        {
            "buffer": 0,
            "byteLength": 47616,
            "byteOffset": 0,
            "byteStride": 32,
            "name": "bufferView_buffer_ID7_0",
            "target": 34962
        },
        {
            "buffer": 0,
            "byteLength": 2592,
            "byteOffset": 47616,
            "name": "bufferView_buffer_ID7_1",
            "target": 34963
        },
        {
            "buffer": 0,
            "byteLength": 1728,
            "byteOffset": 50208,
            "name": "bufferView_buffer_ID7_2",
            "target": 34963
        }
    ],
    "buffers": [
        {
            "byteLength": 51936,
            "name": "buffer_combined",
            "uri": "data:application/octet-stream;base64,"
        }
    ],
    "materials": [
        {
            "emissiveFactor": [
                0.0,
                0.0,
                0.0
            ],
            "name": "Dark_Material",
            "pbrMetallicRoughness": {
                "baseColorFactor": [
                    0.21960799396038055,
                    0.21960799396038055,
                    0.21960799396038055,
                    1.0
                ],
                "metallicFactor": 0.0,
                "roughnessFactor": 1.0
            }
        },
        {
            "emissiveFactor": [
                0.0,
                0.0,
                0.0
            ],
            "name": "Green_Material",
            "pbrMetallicRoughness": {
                "baseColorFactor": [
                    0.4196079969406128,
                    0.8196079730987549,
                    0.800000011920929,
                    1.0
                ],
                "metallicFactor": 0.0,
                "roughnessFactor": 1.0
            }
        }
    ],
    "meshes": [
        {
            "name": "ID7",
            "primitives": [
                {
                    "attributes": {
                        "NORMAL": 0,
                        "POSITION": 1,
                        "TEXCOORD_0": 3
                    },
                    "indices": 2,
                    "material": 0,
                    "mode": 4
                },
                {
                    "attributes": {
                        "NORMAL": 0,
                        "POSITION": 1,
                        "TEXCOORD_0": 3
                    },
                    "indices": 4,
                    "material": 1,
                    "mode": 4
                }
            ]
        }
    ],
    "nodes": [
        {
            "mesh": 0,
            "name": "Earth",
            "rotation": [
                0.5000001192092896,
                0.4999999701976776,
                -0.5,
                0.5000001192092896
            ],
            "scale": [
                0.009999999776482582,
                0.009999999776482582,
                0.009999998845160007
            ],
            "translation": [
                0.0,
                3.3479335703670263e-23,
                -7.659179487912355e-16
            ]
        },
        {
            "children": [
                0
            ],
            "matrix": [
                -1.0,
                0.0,
                0.0,
                0.0,
                0.0,
                0.0,
                1.0,
                0.0,
                0.0,
                1.0,
                0.0,
                0.0,
                0.0,
                0.0,
                0.0,
                1.0
            ],
            "name": "Scene_root"
        }
    ],
    "samplers": [
        {
            "name": "default"
        }
    ],
    "scene": 0,
    "scenes": [
        {
            "extras": {
                "active_camera": null,
                "background_color": [
                    0.05087608844041824,
                    0.05087608844041824,
                    0.05087608844041824
                ],
                "frames_per_second": 24
            },
            "name": "Scene",
            "nodes": [
                1
            ]
        }
    ]
}
