{
    "accessors": [
        {
            "bufferView": 0,
            "byteOffset": 12,
            "componentType": 5126,
            "count": 4116,
            "max": [
                0.999786376953125,
                0.999755859375,
                0.99969482421875
            ],
            "min": [
                -0.999908447265625,
                -0.999969482421875,
                -0.99969482421875
            ],
            "name": "accessor_buffer_ID7_1",
            "type": "VEC3"
        },
        {
            "bufferView": 0,
            "byteOffset": 0,
            "componentType": 5126,
            "count": 4116,
            "max": [
                84.7240982055664,
                77.59420013427734,
                61.61009979248047
            ],
            "min": [
                -132.8730010986328,
                -46.14579772949219,
                -61.61009979248047
            ],
            "name": "accessor_buffer_ID7_0",
            "type": "VEC3"
        },
        {
            "bufferView": 1,
            "byteOffset": 0,
            "componentType": 5123,
            "count": 24300,
            "max": [
                4115
            ],
            "min": [
                0
            ],
            "name": "accessor_buffer_ID7_3",
            "type": "SCALAR"
        },
        {
            "bufferView": 0,
            "byteOffset": 24,
            "componentType": 5126,
            "count": 4116,
            "max": [
                1.0,
                1.0
            ],
            "min": [
                0.0,
                0.0
            ],
            "name": "accessor_buffer_ID7_2",
            "type": "VEC2"
        }
    ],
    "asset": {
        "version": "2.0"
    },
    "bufferViews": [
        {
            "buffer": 0,
            "byteLength": 131712,
            "byteOffset": 0,
            "byteStride": 32,
            "name": "bufferView_buffer_ID7_0",
            "target": 34962
        },
        {
            "buffer": 0,
            "byteLength": 48600,
            "byteOffset": 131712,
            "name": "bufferView_buffer_ID7_1",
            "target": 34963
        }
    ],
    "buffers": [
        {
            "byteLength": 180312,
            "name": "buffer_combined",
            "uri": "data:application/octet-stream;base64,"
        }
    ],
    "materials": [
        {
            "emissiveFactor": [
                0.0,
                0.0,
                0.0
            ],
            "name": "Green_Material",
            "pbrMetallicRoughness": {
                "baseColorFactor": [
                    0.4196079969406128,
                    0.8196079730987549,
                    0.800000011920929,
                    1.0
                ],
                "metallicFactor": 0.0,
                "roughnessFactor": 1.0
            }
        }
    ],
    "meshes": [
        {
            "name": "ID7",
            "primitives": [
                {
                    "attributes": {
                        "NORMAL": 0,
                        "POSITION": 1,
                        "TEXCOORD_0": 3
                    },
                    "indices": 2,
                    "material": 0,
                    "mode": 4
                }
            ]
        }
    ],
    "nodes": [
        {
            "mesh": 0,
            "name": "Cloud",
            "rotation": [
                0.7071068286895752,
                0.0,
                0.0,
                0.7071067094802856
            ],
            "scale": [
                0.009999999776482582,
                0.009999999776482582,
                0.009999999776482582
            ],
            "translation": [
                0.0,
                0.0,
                0.0
            ]
        },
        {
            "children": [
                0
            ],
            "matrix": [
                -1.0,
                0.0,
                0.0,
                0.0,
                0.0,
                0.0,
                1.0,
                0.0,
                0.0,
                1.0,
                0.0,
                0.0,
                0.0,
                0.0,
                0.0,
                1.0
            ],
            "name": "Scene_root"
        }
    ],
    "samplers": [
        {
            "name": "default"
        }
    ],
    "scene": 0,
    "scenes": [
        {
            "extras": {
                "active_camera": null,
                "background_color": [
                    0.05087608844041824,
                    0.05087608844041824,
                    0.05087608844041824
                ],
                "frames_per_second": 24
            },
            "name": "Scene",
            "nodes": [
                1
            ]
        }
    ]
}
