{
    "accessors": [
        {
            "bufferView": 2,
            "byteOffset": 12,
            "componentType": 5126,
            "count": 342,
            "max": [
                1.0,
                1.0,
                0.9989762306213379
            ],
            "min": [
                -1.0,
                -1.0,
                -0.9999999403953552
            ],
            "name": "accessor_buffer_ID26_1",
            "type": "VEC3"
        },
        {
            "bufferView": 0,
            "byteOffset": 12,
            "componentType": 5126,
            "count": 701,
            "max": [
                1.0,
                1.0,
                0.999969482421875
            ],
            "min": [
                -1.0,
                -1.0,
                -0.999969482421875
            ],
            "name": "accessor_buffer_ID17_1",
            "type": "VEC3"
        },
        {
            "bufferView": 1,
            "byteOffset": 0,
            "componentType": 5123,
            "count": 3672,
            "max": [
                700
            ],
            "min": [
                0
            ],
            "name": "accessor_buffer_ID17_3",
            "type": "SCALAR"
        },
        {
            "bufferView": 2,
            "byteOffset": 24,
            "componentType": 5126,
            "count": 342,
            "max": [
                1.0,
                1.0
            ],
            "min": [
                0.0,
                0.0
            ],
            "name": "accessor_buffer_ID26_2",
            "type": "VEC2"
        },
        {
            "bufferView": 0,
            "byteOffset": 0,
            "componentType": 5126,
            "count": 701,
            "max": [
                25.0,
                25.0,
                25.0
            ],
            "min": [
                -25.0,
                -25.0,
                -25.0
            ],
            "name": "accessor_buffer_ID17_0",
            "type": "VEC3"
        },
        {
            "bufferView": 2,
            "byteOffset": 0,
            "componentType": 5126,
            "count": 342,
            "max": [
                25.454198837280273,
                104.38600158691406,
                25.468198776245117
            ],
            "min": [
                -18.535598754882812,
                -2.2228899002075195,
                -19.35719871520996
            ],
            "name": "accessor_buffer_ID26_0",
            "type": "VEC3"
        },
        {
            "bufferView": 4,
            "byteOffset": 0,
            "componentType": 5126,
            "count": 701,
            "max": [
                50.0,
                50.0,
                50.0
            ],
            "min": [
                -50.0,
                -50.0,
                -50.0
            ],
            "name": "accessor_buffer_ID8_0",
            "type": "VEC3"
        },
        {
            "bufferView": 0,
            "byteOffset": 24,
            "componentType": 5126,
            "count": 701,
            "max": [
                1.0,
                1.0
            ],
            "min": [
                0.0,
                0.0
            ],
            "name": "accessor_buffer_ID17_2",
            "type": "VEC2"
        },
        {
            "bufferView": 3,
            "byteOffset": 0,
            "componentType": 5123,
            "count": 540,
            "max": [
                341
            ],
            "min": [
                0
            ],
            "name": "accessor_buffer_ID26_3",
            "type": "SCALAR"
        },
        {
            "bufferView": 4,
            "byteOffset": 12,
            "componentType": 5126,
            "count": 701,
            "max": [
                0.999969482421875,
                1.0,
                1.0
            ],
            "min": [
                -0.999969482421875,
                -1.0,
                -1.0
            ],
            "name": "accessor_buffer_ID8_1",
            "type": "VEC3"
        },
        {
            "bufferView": 5,
            "byteOffset": 0,
            "componentType": 5123,
            "count": 3672,
            "max": [
                700
            ],
            "min": [
                0
            ],
            "name": "accessor_buffer_ID8_3",
            "type": "SCALAR"
        },
        {
            "bufferView": 4,
            "byteOffset": 24,
            "componentType": 5126,
            "count": 701,
            "max": [
                1.0,
                1.0
            ],
            "min": [
                0.0,
                0.0
            ],
            "name": "accessor_buffer_ID8_2",
            "type": "VEC2"
        }
    ],
    "asset": {
        "version": "2.0"
    },
    "bufferViews": [
        {
            "buffer": 0,
            "byteLength": 22432,
            "byteOffset": 0,
            "byteStride": 32,
            "name": "bufferView_buffer_ID17_0",
            "target": 34962
        },
        {
            "buffer": 0,
            "byteLength": 7344,
            "byteOffset": 22432,
            "name": "bufferView_buffer_ID17_1",
            "target": 34963
        },
        {
            "buffer": 0,
            "byteLength": 10944,
            "byteOffset": 29776,
            "byteStride": 32,
            "name": "bufferView_buffer_ID26_0",
            "target": 34962
        },
        {
            "buffer": 0,
            "byteLength": 1080,
            "byteOffset": 40720,
            "name": "bufferView_buffer_ID26_1",
            "target": 34963
        },
        {
            "buffer": 0,
            "byteLength": 22432,
            "byteOffset": 41800,
            "byteStride": 32,
            "name": "bufferView_buffer_ID8_0",
            "target": 34962
        },
        {
            "buffer": 0,
            "byteLength": 7344,
            "byteOffset": 64232,
            "name": "bufferView_buffer_ID8_1",
            "target": 34963
        }
    ],
    "buffers": [
        {
            "byteLength": 71576,
            "name": "buffer_combined",
            "uri": "data:application/octet-stream;base64,"
        }
    ],
    "materials": [
        {
            "emissiveFactor": [
                0.0,
                0.0,
                0.0
            ],
            "name": "Dark_Material",
            "pbrMetallicRoughness": {
                "baseColorFactor": [
                    0.21960799396038055,
                    0.21960799396038055,
                    0.21960799396038055,
                    1.0
                ],
                "metallicFactor": 0.0,
                "roughnessFactor": 1.0
            }
        },
        {
            "emissiveFactor": [
                0.0,
                0.0,
                0.0
            ],
            "name": "Green_Material",
            "pbrMetallicRoughness": {
                "baseColorFactor": [
                    0.4196079969406128,
                    0.8196079730987549,
                    0.800000011920929,
                    1.0
                ],
                "metallicFactor": 0.0,
                "roughnessFactor": 1.0
            }
        }
    ],
    "meshes": [
        {
            "name": "ID17",
            "primitives": [
                {
                    "attributes": {
                        "NORMAL": 1,
                        "POSITION": 4,
                        "TEXCOORD_0": 7
                    },
                    "indices": 2,
                    "material": 1,
                    "mode": 4
                }
            ]
        },
        {
            "name": "ID26",
            "primitives": [
                {
                    "attributes": {
                        "NORMAL": 0,
                        "POSITION": 5,
                        "TEXCOORD_0": 3
                    },
                    "indices": 8,
                    "material": 0,
                    "mode": 4
                }
            ]
        },
        {
            "name": "ID8",
            "primitives": [
                {
                    "attributes": {
                        "NORMAL": 9,
                        "POSITION": 6,
                        "TEXCOORD_0": 11
                    },
                    "indices": 10,
                    "material": 1,
                    "mode": 4
                }
            ]
        }
    ],
    "nodes": [
        {
            "children": [
                1,
                2,
                3
            ],
            "name": "Tree",
            "rotation": [
                0.7071068286895752,
                0.0,
                0.0,
                0.7071067094802856
            ],
            "scale": [
                0.009999999776482582,
                0.009999999776482582,
                0.009999999776482582
            ],
            "translation": [
                0.0,
                0.0,
                0.0
            ]
        },
        {
            "mesh": 1,
            "name": "Tree_Body",
            "rotation": [
                0.0,
                0.0,
                0.0,
                1.0
            ],
            "scale": [
                1.0,
                1.0,
                1.0
            ],
            "translation": [
                0.0,
                2.6099400520324707,
                -1.4869599342346191
            ]
        },
        {
            "mesh": 2,
            "name": "Tree_Brush",
            "rotation": [
                0.0,
                0.0,
                0.0,
                1.0
            ],
            "scale": [
                1.0,
                1.0,
                1.0
            ],
            "translation": [
                0.0,
                143.19000244140625,
                -30.472597122192383
            ]
        },
        {
            "mesh": 0,
            "name": "Tree_Brush.001",
            "rotation": [
                0.0,
                0.0,
                0.0,
                1.0
            ],
            "scale": [
                1.0,
                1.0,
                1.0
            ],
            "translation": [
                0.0,
                119.84300231933594,
                27.951004028320312
            ]
        },
        {
            "children": [
                0
            ],
            "matrix": [
                -1.0,
                0.0,
                0.0,
                0.0,
                0.0,
                0.0,
                1.0,
                0.0,
                0.0,
                1.0,
                0.0,
                0.0,
                0.0,
                0.0,
                0.0,
                1.0
            ],
            "name": "Scene_root"
        }
    ],
    "samplers": [
        {
            "name": "default"
        }
    ],
    "scene": 0,
    "scenes": [
        {
            "extras": {
                "active_camera": null,
                "background_color": [
                    0.05087608844041824,
                    0.05087608844041824,
                    0.05087608844041824
                ],
                "frames_per_second": 24
            },
            "name": "Scene",
            "nodes": [
                4
            ]
        }
    ]
}
